#define AcS_width 32
#define AcS_height 32
static unsigned char AcS_bits[] = {
   0x00, 0x00, 0x00, 0x00, 0xa9, 0x04, 0x80, 0x2a, 0x42, 0xe0, 0x0f, 0x88,
   0x4a, 0x3c, 0x38, 0x20, 0x10, 0x06, 0xc0, 0x88, 0x82, 0x01, 0x00, 0x10,
   0xc8, 0x00, 0x0c, 0x80, 0x42, 0x80, 0x18, 0x24, 0x24, 0x90, 0x0a, 0x8d,
   0x30, 0xb0, 0x02, 0x09, 0x10, 0x6e, 0x00, 0x12, 0xd9, 0x1a, 0x46, 0x16,
   0xc8, 0x04, 0x87, 0x34, 0x88, 0xf0, 0x85, 0x24, 0x08, 0x10, 0x04, 0x25,
   0x08, 0x10, 0x04, 0x25, 0x08, 0x10, 0x04, 0x25, 0x08, 0xf0, 0x84, 0x25,
   0x08, 0x80, 0x87, 0x24, 0x09, 0x00, 0xc6, 0x16, 0x10, 0x00, 0x44, 0x12,
   0x11, 0x00, 0x00, 0x1b, 0x30, 0x00, 0x00, 0x09, 0x61, 0x00, 0x00, 0x0c,
   0x44, 0x00, 0x00, 0xa4, 0x81, 0x00, 0x00, 0x00, 0x04, 0x03, 0x80, 0x50,
   0x11, 0x0e, 0x60, 0x00, 0x44, 0xf8, 0x3f, 0x54, 0x09, 0x80, 0x02, 0x00,
   0xa4, 0x00, 0x80, 0xaa, 0x09, 0x09, 0x24, 0x08 };
